<svg xmlns="http://www.w3.org/2000/svg" xmlns:xlink="http://www.w3.org/1999/xlink" width="1080" zoomAndPan="magnify" viewBox="0 0 810 809.999993" height="1080" preserveAspectRatio="xMidYMid meet" version="1.0"><defs><g/></defs><g fill="#000000" fill-opacity="1"><g transform="translate(396.026011, 640.351739)"><g><path d="M -27.828125 44.34375 L -25.4375 28.921875 L -52.46875 24.703125 L -50.765625 13.875 L -23.734375 18.09375 L -20.421875 -3.1875 L -6.921875 -1.078125 L -16.03125 57.296875 L -60.15625 50.421875 L -58.453125 39.578125 Z M -27.828125 44.34375 "/></g></g></g><g fill="#000000" fill-opacity="1"><g transform="translate(348.324845, 633.756801)"><g><path d="M -64.6875 23.75 L -48.375 -18.625 L -36.703125 -14.125 L -38.640625 -9.078125 C -36.304688 -10.285156 -33.820312 -10.941406 -31.1875 -11.046875 C -28.5625 -11.148438 -25.9375 -10.695312 -23.3125 -9.6875 C -17.75 -7.550781 -13.953125 -4.253906 -11.921875 0.203125 C -9.898438 4.660156 -10.101562 10.039062 -12.53125 16.34375 L -21.75 40.28125 L -34.03125 35.546875 L -25.515625 13.40625 C -22.878906 6.582031 -24.425781 2.070312 -30.15625 -0.125 C -33.09375 -1.257812 -35.820312 -1.210938 -38.34375 0.015625 C -40.875 1.242188 -42.867188 3.75 -44.328125 7.53125 L -52.390625 28.484375 Z M -64.6875 23.75 "/></g></g></g><g fill="#000000" fill-opacity="1"><g transform="translate(298.762347, 613.673974)"><g><path d="M -36.6875 51.109375 L -48.078125 44.484375 L -16.640625 -9.671875 L -5.25 -3.046875 Z M -36.6875 51.109375 "/></g></g></g><g fill="#000000" fill-opacity="1"><g transform="translate(279.083643, 602.401882)"><g><path d="M -41.453125 47.328125 L -52.15625 39.65625 L -15.640625 -11.21875 L -4.9375 -3.546875 Z M -41.453125 47.328125 "/></g></g></g><g fill="#000000" fill-opacity="1"><g transform="translate(260.740153, 589.68911)"><g><path d="M -22.6875 18.640625 L -40.4375 2.65625 L -33.375 -5.1875 L -15.625 10.796875 Z M -22.6875 18.640625 "/></g></g></g><g fill="#000000" fill-opacity="1"><g transform="translate(239.025696, 571.822359)"><g><path d="M -15.6875 -21.296875 C -12.769531 -17.640625 -10.445312 -13.710938 -8.71875 -9.515625 C -6.988281 -5.316406 -6.09375 -1.546875 -6.03125 1.796875 L -16.96875 4.59375 C -17.09375 1.457031 -17.800781 -1.828125 -19.09375 -5.265625 C -20.394531 -8.703125 -22.132812 -11.785156 -24.3125 -14.515625 C -26.738281 -17.546875 -28.976562 -19.421875 -31.03125 -20.140625 C -33.09375 -20.867188 -34.875 -20.632812 -36.375 -19.4375 C -37.476562 -18.5625 -38.050781 -17.40625 -38.09375 -15.96875 C -38.132812 -14.539062 -37.835938 -12.976562 -37.203125 -11.28125 C -36.566406 -9.59375 -35.601562 -7.394531 -34.3125 -4.6875 C -32.332031 -0.507812 -30.863281 3.035156 -29.90625 5.953125 C -28.957031 8.867188 -28.765625 11.863281 -29.328125 14.9375 C -29.898438 18.019531 -31.726562 20.789062 -34.8125 23.25 C -37.488281 25.382812 -40.492188 26.59375 -43.828125 26.875 C -47.160156 27.164062 -50.628906 26.351562 -54.234375 24.4375 C -57.847656 22.53125 -61.335938 19.472656 -64.703125 15.265625 C -67.054688 12.316406 -69.003906 9.148438 -70.546875 5.765625 C -72.097656 2.390625 -73.050781 -0.878906 -73.40625 -4.046875 L -62.671875 -7.21875 C -61.679688 -1.019531 -59.484375 4.207031 -56.078125 8.46875 C -53.691406 11.457031 -51.441406 13.28125 -49.328125 13.9375 C -47.222656 14.601562 -45.382812 14.304688 -43.8125 13.046875 C -42.21875 11.773438 -41.691406 10.003906 -42.234375 7.734375 C -42.785156 5.472656 -44.039062 2.351562 -46 -1.625 C -47.976562 -5.8125 -49.445312 -9.359375 -50.40625 -12.265625 C -51.363281 -15.171875 -51.578125 -18.144531 -51.046875 -21.1875 C -50.515625 -24.226562 -48.707031 -26.976562 -45.625 -29.4375 C -42.988281 -31.550781 -39.992188 -32.738281 -36.640625 -33 C -33.296875 -33.257812 -29.804688 -32.425781 -26.171875 -30.5 C -22.546875 -28.570312 -19.050781 -25.503906 -15.6875 -21.296875 Z M -15.6875 -21.296875 "/></g></g></g><g fill="#000000" fill-opacity="1"><g transform="translate(208.70353, 533.313402)"><g><path d="M -18.921875 -29.953125 C -17.460938 -29.273438 -16.066406 -28.222656 -14.734375 -26.796875 C -13.410156 -25.378906 -12.25 -23.757812 -11.25 -21.9375 C -8.65625 -17.207031 -7.851562 -12.878906 -8.84375 -8.953125 C -9.84375 -5.035156 -12.6875 -1.796875 -17.375 0.765625 L -33.734375 9.734375 L -30.375 15.875 L -39.25 20.75 L -42.609375 14.609375 L -52.3125 19.921875 L -58.640625 8.375 L -48.9375 3.0625 L -54.375 -6.859375 L -45.5 -11.734375 L -40.0625 -1.8125 L -23.859375 -10.703125 C -22.179688 -11.609375 -21.125 -12.742188 -20.6875 -14.109375 C -20.25 -15.484375 -20.460938 -16.957031 -21.328125 -18.53125 C -22.328125 -20.363281 -23.675781 -21.648438 -25.375 -22.390625 Z M -18.921875 -29.953125 "/></g></g></g><g fill="#000000" fill-opacity="1"><g transform="translate(192.366181, 505.67649)"><g><path d="M -51.515625 -8 C -53.804688 -14.644531 -53.988281 -20.296875 -52.0625 -24.953125 C -50.144531 -29.617188 -45.988281 -33.054688 -39.59375 -35.265625 L -15.109375 -43.71875 L -11.078125 -32.078125 L -16.421875 -30.234375 C -11.617188 -29.265625 -8.117188 -25.585938 -5.921875 -19.203125 C -4.785156 -15.910156 -4.359375 -12.859375 -4.640625 -10.046875 C -4.921875 -7.242188 -5.820312 -4.863281 -7.34375 -2.90625 C -8.863281 -0.957031 -10.875 0.445312 -13.375 1.3125 C -17.363281 2.695312 -21.019531 2.28125 -24.34375 0.0625 C -27.664062 -2.15625 -30.414062 -6.40625 -32.59375 -12.6875 L -36.015625 -22.578125 C -38.734375 -21.640625 -40.535156 -20.09375 -41.421875 -17.9375 C -42.316406 -15.78125 -42.195312 -13.054688 -41.0625 -9.765625 C -40.269531 -7.460938 -39.128906 -5.332031 -37.640625 -3.375 C -36.160156 -1.414062 -34.546875 0.117188 -32.796875 1.234375 L -39.953125 8.703125 C -42.398438 6.929688 -44.640625 4.566406 -46.671875 1.609375 C -48.703125 -1.347656 -50.316406 -4.550781 -51.515625 -8 Z M -15.359375 -19.421875 C -16.097656 -21.546875 -17.242188 -23.265625 -18.796875 -24.578125 C -20.347656 -25.890625 -22.207031 -26.5625 -24.375 -26.59375 L -28.75 -25.078125 L -25.796875 -16.546875 C -24.023438 -11.429688 -21.46875 -9.453125 -18.125 -10.609375 C -16.53125 -11.160156 -15.484375 -12.222656 -14.984375 -13.796875 C -14.484375 -15.367188 -14.609375 -17.242188 -15.359375 -19.421875 Z M -15.359375 -19.421875 "/></g></g></g><g fill="#000000" fill-opacity="1"><g transform="translate(176.705144, 461.627367)"><g><path d="M -3.203125 -27.84375 C -2.535156 -23.050781 -2.921875 -18.609375 -4.359375 -14.515625 C -5.804688 -10.421875 -8.132812 -7.054688 -11.34375 -4.421875 C -14.5625 -1.785156 -18.398438 -0.15625 -22.859375 0.46875 C -27.316406 1.09375 -31.445312 0.578125 -35.25 -1.078125 C -39.0625 -2.734375 -42.222656 -5.332031 -44.734375 -8.875 C -47.253906 -12.414062 -48.847656 -16.582031 -49.515625 -21.375 C -50.179688 -26.113281 -49.769531 -30.390625 -48.28125 -34.203125 C -46.800781 -38.023438 -44.332031 -40.992188 -40.875 -43.109375 L -34.03125 -33.765625 C -37.820312 -30.859375 -39.410156 -27.203125 -38.796875 -22.796875 C -38.328125 -19.398438 -36.820312 -16.738281 -34.28125 -14.8125 C -31.738281 -12.882812 -28.546875 -12.191406 -24.703125 -12.734375 C -20.859375 -13.273438 -17.976562 -14.816406 -16.0625 -17.359375 C -14.144531 -19.898438 -13.421875 -22.867188 -13.890625 -26.265625 C -14.515625 -30.722656 -17.050781 -33.804688 -21.5 -35.515625 L -17.375 -46.390625 C -13.601562 -45.285156 -10.460938 -43.101562 -7.953125 -39.84375 C -5.453125 -36.582031 -3.867188 -32.582031 -3.203125 -27.84375 Z M -3.203125 -27.84375 "/></g></g></g><g fill="#000000" fill-opacity="1"><g transform="translate(169.730506, 417.768645)"><g><path d="M -16.203125 -26.640625 L -10.359375 -19.9375 L 1.1875 -19.21875 L 0.375 -6.0625 L -62.125 -9.9375 L -61.3125 -23.09375 L -25.9375 -20.90625 L -42.9375 -41.21875 L -41.953125 -56.890625 L -23.9375 -36.84375 L 3.453125 -55.765625 L 2.46875 -39.84375 Z M -16.203125 -26.640625 "/></g></g></g><g fill="#000000" fill-opacity="1"><g transform="translate(173.784505, 366.517658)"><g/></g></g><g fill="#000000" fill-opacity="1"><g transform="translate(176.420132, 346.91745)"><g><path d="M 8.65625 -53.171875 L 18.890625 -49.25 L 2.5 -6.53125 L -52.65625 -27.6875 L -36.65625 -69.390625 L -26.421875 -65.46875 L -37.546875 -36.46875 L -25.5625 -31.875 L -15.734375 -57.484375 L -5.796875 -53.671875 L -15.625 -28.0625 L -2.859375 -23.15625 Z M 8.65625 -53.171875 "/></g></g></g><g fill="#000000" fill-opacity="1"><g transform="translate(193.883178, 299.315598)"><g><path d="M -19.828125 -53.515625 C -16.722656 -58.210938 -12.804688 -61.066406 -8.078125 -62.078125 C -3.347656 -63.097656 1.78125 -61.78125 7.3125 -58.125 L 28.984375 -43.765625 L 21.71875 -32.796875 L 1.734375 -46.03125 C -1.265625 -48.019531 -3.9375 -48.847656 -6.28125 -48.515625 C -8.632812 -48.179688 -10.632812 -46.769531 -12.28125 -44.28125 C -14.113281 -41.507812 -14.71875 -38.734375 -14.09375 -35.953125 C -13.46875 -33.179688 -11.46875 -30.675781 -8.09375 -28.4375 L 10.625 -16.046875 L 3.359375 -5.0625 L -34.5 -30.125 L -27.5625 -40.625 L -23.125 -37.703125 C -23.769531 -40.203125 -23.804688 -42.816406 -23.234375 -45.546875 C -22.671875 -48.273438 -21.535156 -50.929688 -19.828125 -53.515625 Z M -19.828125 -53.515625 "/></g></g></g><g fill="#000000" fill-opacity="1"><g transform="translate(222.137574, 255.340312)"><g><path d="M 6.890625 -69.390625 L 33.015625 -42.046875 C 38.765625 -36.035156 41.472656 -30.066406 41.140625 -24.140625 C 40.804688 -18.210938 37.632812 -12.375 31.625 -6.625 C 28.4375 -3.59375 25.050781 -1.101562 21.46875 0.84375 C 17.882812 2.800781 14.457031 3.9375 11.1875 4.25 L 8.421875 -6.203125 C 10.898438 -6.378906 13.515625 -7.140625 16.265625 -8.484375 C 19.023438 -9.835938 21.46875 -11.523438 23.59375 -13.546875 C 26.875 -16.691406 28.585938 -19.753906 28.734375 -22.734375 C 28.890625 -25.722656 27.53125 -28.722656 24.65625 -31.734375 L 23.3125 -33.140625 C 23.4375 -28.035156 21.285156 -23.363281 16.859375 -19.125 C 13.835938 -16.25 10.441406 -14.28125 6.671875 -13.21875 C 2.910156 -12.15625 -0.84375 -12.125 -4.59375 -13.125 C -8.351562 -14.125 -11.726562 -16.191406 -14.71875 -19.328125 C -17.71875 -22.460938 -19.628906 -25.925781 -20.453125 -29.71875 C -21.285156 -33.507812 -21.082031 -37.257812 -19.84375 -40.96875 C -18.601562 -44.6875 -16.472656 -47.984375 -13.453125 -50.859375 C -8.703125 -55.410156 -3.59375 -57.3125 1.875 -56.5625 L -2.140625 -60.765625 Z M 11.265625 -28.765625 C 13.785156 -31.171875 15.140625 -33.878906 15.328125 -36.890625 C 15.523438 -39.910156 14.476562 -42.625 12.1875 -45.03125 C 9.882812 -47.4375 7.21875 -48.609375 4.1875 -48.546875 C 1.164062 -48.492188 -1.601562 -47.265625 -4.125 -44.859375 C -6.632812 -42.453125 -7.992188 -39.726562 -8.203125 -36.6875 C -8.421875 -33.65625 -7.378906 -30.9375 -5.078125 -28.53125 C -2.785156 -26.125 -0.117188 -24.957031 2.921875 -25.03125 C 5.972656 -25.113281 8.753906 -26.359375 11.265625 -28.765625 Z M 11.265625 -28.765625 "/></g></g></g><g fill="#000000" fill-opacity="1"><g transform="translate(262.230193, 218.399461)"><g><path d="M -20.703125 -40.859375 L -9.859375 -48.328125 L 15.859375 -10.90625 L 5.015625 -3.4375 Z M -18.859375 -49.8125 C -20.859375 -48.4375 -22.882812 -47.898438 -24.9375 -48.203125 C -26.988281 -48.503906 -28.597656 -49.507812 -29.765625 -51.21875 C -30.953125 -52.9375 -31.316406 -54.800781 -30.859375 -56.8125 C -30.398438 -58.832031 -29.171875 -60.53125 -27.171875 -61.90625 C -25.171875 -63.28125 -23.164062 -63.835938 -21.15625 -63.578125 C -19.15625 -63.328125 -17.582031 -62.367188 -16.4375 -60.703125 C -15.1875 -58.890625 -14.773438 -56.960938 -15.203125 -54.921875 C -15.640625 -52.890625 -16.859375 -51.1875 -18.859375 -49.8125 Z M -18.859375 -49.8125 "/></g></g></g><g fill="#000000" fill-opacity="1"><g transform="translate(278.665814, 205.089607)"><g><path d="M 10.671875 -56.0625 C 15.765625 -58.46875 20.597656 -58.890625 25.171875 -57.328125 C 29.742188 -55.765625 33.453125 -51.984375 36.296875 -45.984375 L 47.4375 -22.5 L 35.53125 -16.859375 L 25.265625 -38.515625 C 23.710938 -41.773438 21.847656 -43.863281 19.671875 -44.78125 C 17.492188 -45.707031 15.0625 -45.535156 12.375 -44.265625 C 9.375 -42.835938 7.421875 -40.773438 6.515625 -38.078125 C 5.609375 -35.378906 6.023438 -32.195312 7.765625 -28.53125 L 17.390625 -8.25 L 5.484375 -2.609375 L -13.96875 -43.640625 L -2.59375 -49.03125 L -0.328125 -44.21875 C 0.429688 -46.695312 1.753906 -48.957031 3.640625 -51 C 5.535156 -53.039062 7.878906 -54.726562 10.671875 -56.0625 Z M 10.671875 -56.0625 "/></g></g></g><g fill="#000000" fill-opacity="1"><g transform="translate(325.955528, 182.272904)"><g><path d="M 44.0625 -33.5 C 44.101562 -33.332031 44.296875 -32.160156 44.640625 -29.984375 L 11.1875 -22.140625 C 12.425781 -19.535156 14.351562 -17.703125 16.96875 -16.640625 C 19.59375 -15.578125 22.578125 -15.441406 25.921875 -16.234375 C 28.222656 -16.773438 30.1875 -17.597656 31.8125 -18.703125 C 33.4375 -19.804688 34.835938 -21.28125 36.015625 -23.125 L 44.578125 -17.328125 C 41.535156 -11.578125 36.007812 -7.765625 28 -5.890625 C 23.019531 -4.710938 18.382812 -4.644531 14.09375 -5.6875 C 9.800781 -6.726562 6.207031 -8.734375 3.3125 -11.703125 C 0.414062 -14.671875 -1.539062 -18.34375 -2.5625 -22.71875 C -3.582031 -27.050781 -3.472656 -31.195312 -2.234375 -35.15625 C -0.992188 -39.113281 1.191406 -42.484375 4.328125 -45.265625 C 7.460938 -48.054688 11.242188 -49.972656 15.671875 -51.015625 C 20.003906 -52.035156 24.140625 -52.023438 28.078125 -50.984375 C 32.015625 -49.953125 35.390625 -47.929688 38.203125 -44.921875 C 41.023438 -41.910156 42.976562 -38.101562 44.0625 -33.5 Z M 18.03125 -41.34375 C 15.125 -40.664062 12.875 -39.269531 11.28125 -37.15625 C 9.695312 -35.050781 9.023438 -32.523438 9.265625 -29.578125 L 31.046875 -34.6875 C 29.929688 -37.375 28.195312 -39.320312 25.84375 -40.53125 C 23.488281 -41.75 20.882812 -42.019531 18.03125 -41.34375 Z M 18.03125 -41.34375 "/></g></g></g><g fill="#000000" fill-opacity="1"><g transform="translate(372.272889, 170.811938)"><g><path d="M 49.90625 -23.9375 C 49.914062 -23.769531 49.867188 -22.585938 49.765625 -20.390625 L 15.421875 -19.421875 C 16.109375 -16.628906 17.625 -14.453125 19.96875 -12.890625 C 22.320312 -11.328125 25.21875 -10.59375 28.65625 -10.6875 C 31.019531 -10.757812 33.101562 -11.171875 34.90625 -11.921875 C 36.71875 -12.679688 38.390625 -13.84375 39.921875 -15.40625 L 47.15625 -8.015625 C 43.007812 -2.992188 36.828125 -0.367188 28.609375 -0.140625 C 23.492188 0.00390625 18.9375 -0.859375 14.9375 -2.734375 C 10.945312 -4.617188 7.832031 -7.304688 5.59375 -10.796875 C 3.363281 -14.285156 2.1875 -18.273438 2.0625 -22.765625 C 1.9375 -27.210938 2.878906 -31.25 4.890625 -34.875 C 6.898438 -38.507812 9.71875 -41.375 13.34375 -43.46875 C 16.96875 -45.570312 21.054688 -46.691406 25.609375 -46.828125 C 30.054688 -46.953125 34.101562 -46.109375 37.75 -44.296875 C 41.40625 -42.484375 44.3125 -39.816406 46.46875 -36.296875 C 48.625 -32.785156 49.769531 -28.664062 49.90625 -23.9375 Z M 25.984375 -36.875 C 22.992188 -36.789062 20.507812 -35.875 18.53125 -34.125 C 16.5625 -32.382812 15.394531 -30.046875 15.03125 -27.109375 L 37.390625 -27.734375 C 36.847656 -30.597656 35.539062 -32.859375 33.46875 -34.515625 C 31.40625 -36.171875 28.910156 -36.957031 25.984375 -36.875 Z M 25.984375 -36.875 "/></g></g></g><g fill="#000000" fill-opacity="1"><g transform="translate(420.737567, 169.754881)"><g><path d="M 24.046875 -36.390625 C 25.910156 -38.316406 28.242188 -39.648438 31.046875 -40.390625 C 33.859375 -41.128906 36.992188 -41.25 40.453125 -40.75 L 38.734375 -28.734375 C 37.296875 -29.046875 36.328125 -29.238281 35.828125 -29.3125 C 32.085938 -29.84375 29.015625 -29.210938 26.609375 -27.421875 C 24.203125 -25.640625 22.695312 -22.660156 22.09375 -18.484375 L 19.0625 2.734375 L 6.015625 0.859375 L 12.453125 -44.09375 L 24.90625 -42.3125 Z M 24.046875 -36.390625 "/></g></g></g><g fill="#000000" fill-opacity="1"><g transform="translate(453.596301, 174.68105)"><g><path d="M 10.53125 3.421875 C 8.289062 2.847656 6.609375 1.601562 5.484375 -0.3125 C 4.359375 -2.238281 4.09375 -4.34375 4.6875 -6.625 C 5.289062 -8.96875 6.539062 -10.664062 8.4375 -11.71875 C 10.332031 -12.769531 12.398438 -13.007812 14.640625 -12.4375 C 16.867188 -11.851562 18.5625 -10.640625 19.71875 -8.796875 C 20.875 -6.953125 21.148438 -4.859375 20.546875 -2.515625 C 19.953125 -0.234375 18.691406 1.46875 16.765625 2.59375 C 14.835938 3.726562 12.757812 4.003906 10.53125 3.421875 Z M 10.53125 3.421875 "/></g></g></g><g fill="#000000" fill-opacity="1"><g transform="translate(472.648211, 179.463594)"><g/></g></g><g fill="#000000" fill-opacity="1"><g transform="translate(491.384351, 180.799559)"><g><path d="M 112.953125 2.5625 L 64.6875 41.734375 L 52.34375 33.765625 L 63.109375 -6.90625 L 30.140625 19.4375 L 17.875 11.53125 L 33.578125 -48.625 L 45.484375 -40.953125 L 34.203125 1.15625 L 68.40625 -26.171875 L 79.046875 -19.296875 L 67.703125 23.1875 L 101.953125 -4.53125 Z M 112.953125 2.5625 "/></g></g></g><g fill="#000000" fill-opacity="1"><g transform="translate(565.992622, 231.409154)"><g><path d="M 50.03125 23.65625 C 49.90625 23.757812 48.957031 24.46875 47.1875 25.78125 L 24.796875 -0.28125 C 23.066406 2.019531 22.332031 4.578125 22.59375 7.390625 C 22.863281 10.203125 24.117188 12.910156 26.359375 15.515625 C 27.898438 17.304688 29.535156 18.664062 31.265625 19.59375 C 32.992188 20.519531 34.941406 21.085938 37.109375 21.296875 L 35.9375 31.5625 C 29.425781 31.507812 23.492188 28.363281 18.140625 22.125 C 14.804688 18.25 12.609375 14.164062 11.546875 9.875 C 10.492188 5.582031 10.613281 1.472656 11.90625 -2.453125 C 13.207031 -6.390625 15.566406 -9.820312 18.984375 -12.75 C 22.359375 -15.65625 26.085938 -17.472656 30.171875 -18.203125 C 34.253906 -18.929688 38.25 -18.546875 42.15625 -17.046875 C 46.070312 -15.546875 49.515625 -13.066406 52.484375 -9.609375 C 55.390625 -6.242188 57.289062 -2.578125 58.1875 1.390625 C 59.082031 5.367188 58.84375 9.300781 57.46875 13.1875 C 56.101562 17.082031 53.625 20.570312 50.03125 23.65625 Z M 45 -3.0625 C 43.050781 -5.332031 40.773438 -6.679688 38.171875 -7.109375 C 35.578125 -7.546875 33.019531 -6.984375 30.5 -5.421875 L 45.09375 11.546875 C 46.976562 9.316406 47.910156 6.878906 47.890625 4.234375 C 47.867188 1.585938 46.90625 -0.84375 45 -3.0625 Z M 45 -3.0625 "/></g></g></g><g fill="#000000" fill-opacity="1"><g transform="translate(597.623436, 266.858531)"><g><path d="M 56.21875 6.90625 C 58.226562 10.613281 59.207031 14.445312 59.15625 18.40625 C 59.101562 22.375 58.003906 26.0625 55.859375 29.46875 C 53.710938 32.882812 50.582031 35.710938 46.46875 37.953125 C 42.375 40.179688 38.3125 41.265625 34.28125 41.203125 C 30.25 41.148438 26.550781 40.070312 23.1875 37.96875 C 19.832031 35.863281 17.148438 32.957031 15.140625 29.25 C 12.148438 23.757812 11.601562 18.640625 13.5 13.890625 L 8.90625 16.390625 L 2.90625 5.34375 L 57.921875 -24.578125 L 64.21875 -13.015625 L 44.859375 -2.484375 C 49.648438 -1.316406 53.4375 1.8125 56.21875 6.90625 Z M 23.53125 22.078125 C 25.144531 25.035156 27.46875 26.921875 30.5 27.734375 C 33.539062 28.554688 36.738281 28.054688 40.09375 26.234375 C 43.457031 24.410156 45.625 22 46.59375 19 C 47.570312 16 47.253906 13.019531 45.640625 10.0625 C 44.023438 7.09375 41.695312 5.203125 38.65625 4.390625 C 35.613281 3.585938 32.410156 4.097656 29.046875 5.921875 C 25.691406 7.742188 23.53125 10.148438 22.5625 13.140625 C 21.59375 16.128906 21.914062 19.109375 23.53125 22.078125 Z M 23.53125 22.078125 "/></g></g></g><g fill="#000000" fill-opacity="1"><g transform="translate(622.445715, 314.587944)"><g/></g></g><g fill="#000000" fill-opacity="1"><g transform="translate(631.19685, 331.792864)"><g><path d="M 59.421875 -2.734375 L 63.8125 23.75 C 64.851562 30.082031 64.570312 35.875 62.96875 41.125 C 61.363281 46.375 58.585938 50.707031 54.640625 54.125 C 50.703125 57.550781 45.820312 59.742188 40 60.703125 C 34.15625 61.671875 28.820312 61.171875 24 59.203125 C 19.175781 57.234375 15.148438 54.019531 11.921875 49.5625 C 8.703125 45.113281 6.570312 39.722656 5.53125 33.390625 L 1.140625 6.90625 Z M 16.484375 30.890625 C 17.441406 36.722656 19.832031 41.101562 23.65625 44.03125 C 27.476562 46.96875 32.171875 47.972656 37.734375 47.046875 C 43.273438 46.128906 47.382812 43.664062 50.0625 39.65625 C 52.738281 35.65625 53.597656 30.738281 52.640625 24.90625 L 50.59375 12.578125 L 14.4375 18.5625 Z M 16.484375 30.890625 "/></g></g></g><g fill="#000000" fill-opacity="1"><g transform="translate(641.317904, 394.26746)"><g><path d="M 18.9375 52.015625 C 18.78125 51.992188 17.613281 51.828125 15.4375 51.515625 L 17.828125 17.25 C 14.984375 17.65625 12.664062 18.953125 10.875 21.140625 C 9.082031 23.328125 8.066406 26.132812 7.828125 29.5625 C 7.660156 31.925781 7.863281 34.039062 8.4375 35.90625 C 9.019531 37.78125 10.015625 39.5625 11.421875 41.25 L 3.359375 47.71875 C -1.234375 43.101562 -3.242188 36.695312 -2.671875 28.5 C -2.304688 23.394531 -0.992188 18.945312 1.265625 15.15625 C 3.523438 11.363281 6.5 8.523438 10.1875 6.640625 C 13.882812 4.753906 17.972656 3.96875 22.453125 4.28125 C 26.890625 4.59375 30.816406 5.925781 34.234375 8.28125 C 37.660156 10.632812 40.238281 13.71875 41.96875 17.53125 C 43.695312 21.351562 44.40625 25.535156 44.09375 30.078125 C 43.78125 34.515625 42.546875 38.457031 40.390625 41.90625 C 38.234375 45.363281 35.296875 47.992188 31.578125 49.796875 C 27.867188 51.597656 23.65625 52.335938 18.9375 52.015625 Z M 34.140625 29.46875 C 34.347656 26.476562 33.679688 23.914062 32.140625 21.78125 C 30.609375 19.644531 28.398438 18.253906 25.515625 17.609375 L 23.953125 39.921875 C 26.847656 39.660156 29.21875 38.582031 31.0625 36.6875 C 32.914062 34.789062 33.941406 32.382812 34.140625 29.46875 Z M 34.140625 29.46875 "/></g></g></g><g fill="#000000" fill-opacity="1"><g transform="translate(638.380885, 442.010745)"><g><path d="M 30.296875 61.328125 L -8.4375 30.84375 L -4.859375 17.75 L 43.96875 11.34375 L 40.390625 24.453125 L 7.28125 28.40625 L 33.640625 49.109375 Z M 30.296875 61.328125 "/></g></g></g><g fill="#000000" fill-opacity="1"><g transform="translate(627.138042, 485.663894)"><g><path d="M -2.5 55.3125 C -2.644531 55.226562 -3.664062 54.617188 -5.5625 53.484375 L 9.828125 22.765625 C 7.035156 22.054688 4.394531 22.367188 1.90625 23.703125 C -0.582031 25.035156 -2.597656 27.238281 -4.140625 30.3125 C -5.191406 32.425781 -5.8125 34.457031 -6 36.40625 C -6.1875 38.351562 -5.957031 40.375 -5.3125 42.46875 L -15.234375 45.328125 C -17.691406 39.316406 -17.082031 32.632812 -13.40625 25.28125 C -11.113281 20.707031 -8.191406 17.101562 -4.640625 14.46875 C -1.097656 11.832031 2.734375 10.351562 6.859375 10.03125 C 10.992188 9.71875 15.070312 10.570312 19.09375 12.59375 C 23.070312 14.582031 26.179688 17.316406 28.421875 20.796875 C 30.671875 24.285156 31.863281 28.125 32 32.3125 C 32.132812 36.5 31.1875 40.628906 29.15625 44.703125 C 27.15625 48.671875 24.492188 51.835938 21.171875 54.203125 C 17.859375 56.566406 14.140625 57.867188 10.015625 58.109375 C 5.898438 58.359375 1.726562 57.425781 -2.5 55.3125 Z M 20.203125 40.328125 C 21.535156 37.648438 21.90625 35.03125 21.3125 32.46875 C 20.71875 29.90625 19.207031 27.765625 16.78125 26.046875 L 6.765625 46.0625 C 9.535156 46.9375 12.140625 46.851562 14.578125 45.8125 C 17.015625 44.769531 18.890625 42.941406 20.203125 40.328125 Z M 20.203125 40.328125 "/></g></g></g><g fill="#000000" fill-opacity="1"><g transform="translate(604.555135, 529.159334)"><g><path d="M 47.6875 41.03125 L 40.09375 51.796875 L -11.09375 15.734375 L -3.5 4.96875 Z M 47.6875 41.03125 "/></g></g></g><g fill="#000000" fill-opacity="1"><g transform="translate(593.52958, 547.356107)"><g><path d="M -19.703125 19.46875 C -16.378906 16.019531 -12.679688 13.617188 -8.609375 12.265625 C -4.535156 10.921875 -0.484375 10.710938 3.546875 11.640625 C 7.585938 12.566406 11.226562 14.59375 14.46875 17.71875 C 17.707031 20.832031 19.859375 24.390625 20.921875 28.390625 C 21.992188 32.390625 21.929688 36.445312 20.734375 40.5625 C 19.535156 44.6875 17.273438 48.472656 13.953125 51.921875 C 10.628906 55.359375 6.941406 57.738281 2.890625 59.0625 C -1.160156 60.394531 -5.203125 60.597656 -9.234375 59.671875 C -13.273438 58.742188 -16.914062 56.722656 -20.15625 53.609375 C -23.394531 50.484375 -25.546875 46.921875 -26.609375 42.921875 C -27.679688 38.921875 -27.628906 34.867188 -26.453125 30.765625 C -25.273438 26.671875 -23.023438 22.90625 -19.703125 19.46875 Z M -11.9375 26.96875 C -14.28125 29.394531 -15.378906 32.175781 -15.234375 35.3125 C -15.097656 38.457031 -13.65625 41.359375 -10.90625 44.015625 C -8.15625 46.660156 -5.207031 47.992188 -2.0625 48.015625 C 1.082031 48.046875 3.828125 46.847656 6.171875 44.421875 C 8.515625 41.984375 9.628906 39.179688 9.515625 36.015625 C 9.398438 32.859375 7.96875 29.957031 5.21875 27.3125 C 2.46875 24.65625 -0.488281 23.320312 -3.65625 23.3125 C -6.832031 23.3125 -9.59375 24.53125 -11.9375 26.96875 Z M -11.9375 26.96875 "/></g></g></g><g fill="#000000" fill-opacity="1"><g transform="translate(559.797023, 583.486531)"><g><path d="M -1.84375 56.59375 C -5.351562 58.9375 -9.082031 60.257812 -13.03125 60.5625 C -16.988281 60.863281 -20.757812 60.097656 -24.34375 58.265625 C -27.9375 56.441406 -31.03125 53.582031 -33.625 49.6875 C -36.21875 45.800781 -37.664062 41.847656 -37.96875 37.828125 C -38.28125 33.816406 -37.535156 30.039062 -35.734375 26.5 C -33.929688 22.96875 -31.273438 20.03125 -27.765625 17.6875 C -22.941406 14.476562 -18.132812 13.472656 -13.34375 14.671875 L -25.09375 -2.953125 L -14.140625 -10.25 L 20.109375 41.15625 L 9.640625 48.125 L 6.75 43.765625 C 6.21875 48.859375 3.351562 53.132812 -1.84375 56.59375 Z M -19.890625 25.40625 C -22.691406 27.28125 -24.363281 29.769531 -24.90625 32.875 C -25.445312 35.976562 -24.65625 39.117188 -22.53125 42.296875 C -20.414062 45.484375 -17.820312 47.421875 -14.75 48.109375 C -11.675781 48.804688 -8.738281 48.21875 -5.9375 46.34375 C -3.125 44.476562 -1.445312 41.992188 -0.90625 38.890625 C -0.375 35.796875 -1.164062 32.65625 -3.28125 29.46875 C -5.40625 26.289062 -8 24.351562 -11.0625 23.65625 C -14.132812 22.957031 -17.078125 23.539062 -19.890625 25.40625 Z M -19.890625 25.40625 "/></g></g></g><g fill="#000000" fill-opacity="1"><g transform="translate(516.368283, 612.85277)"><g><path d="M -38.765625 39.515625 C -38.828125 39.359375 -39.179688 38.226562 -39.828125 36.125 L -7.875 23.515625 C -9.476562 21.117188 -11.648438 19.585938 -14.390625 18.921875 C -17.140625 18.253906 -20.113281 18.550781 -23.3125 19.8125 C -25.507812 20.675781 -27.328125 21.769531 -28.765625 23.09375 C -30.203125 24.414062 -31.378906 26.078125 -32.296875 28.078125 L -41.59375 23.578125 C -39.414062 17.460938 -34.503906 12.894531 -26.859375 9.875 C -22.097656 8 -17.515625 7.265625 -13.109375 7.671875 C -8.710938 8.078125 -4.867188 9.535156 -1.578125 12.046875 C 1.703125 14.566406 4.164062 17.921875 5.8125 22.109375 C 7.445312 26.242188 7.9375 30.359375 7.28125 34.453125 C 6.632812 38.554688 4.960938 42.210938 2.265625 45.421875 C -0.429688 48.628906 -3.898438 51.066406 -8.140625 52.734375 C -12.273438 54.367188 -16.363281 54.957031 -20.40625 54.5 C -24.457031 54.050781 -28.09375 52.539062 -31.3125 49.96875 C -34.539062 47.40625 -37.023438 43.921875 -38.765625 39.515625 Z M -11.859375 43.53125 C -9.078125 42.425781 -7.050781 40.710938 -5.78125 38.390625 C -4.519531 36.078125 -4.21875 33.484375 -4.875 30.609375 L -25.703125 38.8125 C -24.222656 41.320312 -22.226562 43.003906 -19.71875 43.859375 C -17.207031 44.710938 -14.585938 44.601562 -11.859375 43.53125 Z M -11.859375 43.53125 "/></g></g></g><g fill="#000000" fill-opacity="1"><g transform="translate(471.162095, 630.355423)"><g><path d="M -10.21875 42.40625 C -11.320312 44.863281 -13.0625 46.914062 -15.4375 48.5625 C -17.820312 50.207031 -20.722656 51.382812 -24.140625 52.09375 L -26.625 40.203125 C -25.175781 40.015625 -24.203125 39.867188 -23.703125 39.765625 C -20.003906 38.992188 -17.328125 37.359375 -15.671875 34.859375 C -14.015625 32.359375 -13.613281 29.039062 -14.46875 24.90625 L -18.84375 3.921875 L -5.953125 1.234375 L 3.3125 45.6875 L -9 48.265625 Z M -10.21875 42.40625 "/></g></g></g><g fill="#000000" fill-opacity="1"><g transform="translate(438.594847, 636.915998)"><g><path d="M -11.078125 0.375 C -8.773438 0.15625 -6.765625 0.753906 -5.046875 2.171875 C -3.335938 3.585938 -2.367188 5.472656 -2.140625 7.828125 C -1.910156 10.234375 -2.507812 12.253906 -3.9375 13.890625 C -5.363281 15.535156 -7.226562 16.46875 -9.53125 16.6875 C -11.820312 16.894531 -13.820312 16.328125 -15.53125 14.984375 C -17.25 13.648438 -18.222656 11.78125 -18.453125 9.375 C -18.679688 7.019531 -18.082031 4.984375 -16.65625 3.265625 C -15.226562 1.546875 -13.367188 0.582031 -11.078125 0.375 Z M -11.078125 0.375 "/></g></g></g></svg>